<?xml version="1.0" encoding="UTF-8"?>
<svg id="Capa_1" xmlns="http://www.w3.org/2000/svg" version="1.1" viewBox="0 0 1154 470">
  <!-- Generator: Adobe Illustrator 29.8.3, SVG Export Plug-In . SVG Version: 2.1.1 Build 3)  -->
  <defs>
    <style>
      .st0 {
        fill: #6b5e40;
      }

      .st1 {
        fill: #b2986b;
      }

      .st2 {
        fill: #f1f2f2;
      }

      .st3 {
        fill: #65583a;
      }

      .st4 {
        fill: #7f5945;
      }

      .st5 {
        fill: #675a3c;
      }

      .st6 {
        fill: #94ae60;
      }

      .st7 {
        fill: #7a5745;
      }

      .st8 {
        fill: #f5f5f4;
      }

      .st9 {
        fill: #80aaa0;
      }

      .st10 {
        fill: #80604f;
      }

      .st11 {
        fill: #7b5845;
      }

      .st12 {
        fill: #fdfefe;
      }

      .st13 {
        fill: #5e5236;
      }

      .st14 {
        fill: #e6e6e6;
      }
    </style>
  </defs>
  <path class="st9" d="M191.36,274.84c1.89.02,5.06-.03,6.75,0,10.5.16,22.76-1,32.91.02,20.28,2.03,30.25,16.6,13.52,32.06-22.04,20.36-115.24,47.7-61.48,88.51l18.43,11.12h-115.66c-.94,0-9.83-8.44-12.1-9.86-16.16-10.13-17.22-5.57-9.01,9.86H13.22c-3.93,0-4.49-15.91-4.07-19.27,5.41-42.72,108.4-62.3,141.65-76.16,12-5,36.28-15.51,14.17-25.94l-39.46-10.32c21.92.15,43.92-.26,65.84-.02ZM189.67,310.3c-9.25-1.06-19.18,4.18-21.93,13.49,8.65,1.11,21.9-3.39,21.93-13.49ZM140.7,342.38c-12.5-.25-22.6-1.7-32.65,7.02-9.1,7.89,11.41,7.32,17.51,5.69,2.52-.67,18.23-9.96,15.13-12.71ZM130.57,359.27c-16.23.62-28.52,12.19-28.68,28.69,13.69-2.38,28.59-13.94,28.68-28.69Z"/>
  <path class="st4" d="M392.29,225.87c.85,23.42,7.97,52.98.57,75.69-3.95,12.11-35.77,61.19-45.31,69.51-22.82,19.88-96.27,14.1-124.94,33.66-11.17-3.64-37.14-20.13-36.48-32.79.56-10.54,35.58-38.8,45.25-44.43,24.03-14,45.63-9.67,70.13-17.67,8.14-2.66,45.04-27.93,43.5-5.56-1.24,18.01-42.82,28.46-54.01,38.95,11.89.8,33.71-3.58,43.82-10.21,8.38-5.49,27.4-31.79,31.3-41.31,9.22-22.57-3.35-59.42,26.18-65.84Z"/>
  <path class="st1" d="M334.9,256.25c-1.3-49.32-33.34-93.92-77.71-113.94-5.4-2.44-16.19-4.07-20.12-6.9-7.3-5.25-19.18-22-28.03-29.38-12.12-10.13-24.85-15.22-37.45-23.28-1.67-1.07-3.02.16-2.17-3.78,73.97-12.42,147.26,15.68,190.48,77.13,6.36,9.05,22.8,35.07,22.39,45.24-.32,7.78-12.54,25.1-17.84,31.3-2.42,2.84-27.11,26.57-29.56,23.61Z"/>
  <path class="st6" d="M218.38,133h-32.93c-3.6,0-23.25,5.91-27.84,7.62l-38.85,21.08c-.39-26.91,21.37-20.73,37.12-32.94.66-3.57-1.34-2.75-3.87-2.18-5.55,1.23-10.2,5.64-16.37,4.73-.45-3.57,5.02-6.24,7.65-8.38,4.4-3.57,12.07-5.25,10.91-11.87-13.26-2.61-22.01,5.04-33.76,8.42-1.12-1.07,5.97-13.55,2.5-13.52-23.76,5.17-29.71,35.1-26.16,55.74l-16.85-8.43c-3.58,9.28-6.14,17.58-5,27.77.34,3.03,3.14,5.6,2.93,8.24-.27,3.42-10.14,21.01-11.96,28.48-8.52,34.97,1.94,70.85,24.14,98.41l-56.41,21.24c-38.35-89.33.09-190.73,83.4-237.38,5.15-2.88,25.5-13.51,29.84-13.87,12.83-1.08,54.64,27.77,64.77,37.52,2.57,2.48,6.82,5.38,6.73,9.31ZM158.44,124.56v1.69c1.1-.56,1.1-1.13,0-1.69Z"/>
  <path class="st7" d="M126.62,192.68c3.76,3.48,7.19,11.12,10.75,15.42,6.84,8.25,21.78,14.48,9.98,23.55-9.96,7.66-19.1-.43-31.16.93-16.65,1.89-25.15,33.78-26.23,48.11-.42,5.52,4.35,18.09-3.26,17.77-14.64-29.77-21.62-60.37-8.77-92.32,1.47-3.66,8.14-13.1,8.16-14.89.02-2.24-3.76-6.38-4.38-10.25-.88-5.5.37-11.98-.09-17.63,13.18-2.26,18.18,13.66,24.43,18.63,4.81,3.82,14.85,5.37,20.57,10.67Z"/>
  <path class="st11" d="M290.99,303.54c-2.1-7.92,6.07-20.81-5.06-21.96-3.54,8.96-6.03,28.49-18.58,25.32,2.01-7.27,6.3-14.99,6.39-22.78.11-9.79-5.97-19.5-7.65-29.15-1.36-7.8,2.47-16.93-5.64-21.38-7.87-4.32-18.25.44-23.48-8.62l22.79-17.68.84-13.52c11.68.58,5.56,14.41,14.34-1.66,11.25,13,11.58,33.31,22.36,46.83,9.01,11.3,29.86,18.88,33.47,34.06,1.16,4.9,2.12,11.64-1.71,15.41-3.5,3.45-35.65,17.52-38.08,15.11Z"/>
  <path class="st13" d="M481.52,211.22c38.76,4.8,23.66,49.59-10.98,42.2.96,6.13-2.37,19.88,2.44,23.8,3.03,2.47,5.72-.47,6.01,4.07.36,5.5-10.59.79-14.35.7-4.01-.1-12,4.38-14.34-.72-1.58-3.44,4.78-2.33,6.91-4.86,1.38-1.64,1.32-3.22,1.59-5.17,1.01-7.35,1.19-42.31-.12-49-.91-4.64-3.92-5.99-8.4-5.97-.7-1.57,1.51-5.05,2.54-5.05,8.78,0,20.43-1.02,28.7,0ZM468.85,218.82c-1.98,6.34,1.45,21.97,0,29.55,9.36.64,20.23.9,22.8-10.07,5.38-22.94-20.92-25.53-22.8-19.48Z"/>
  <path class="st5" d="M826.81,231.47c-5.71.41-5.09-6.67-7.62-10.1-6.24-8.44-21.15-6.9-22.46,4.6-1.63,14.25,29.74,15.7,33.07,32.06,4.63,22.74-15.61,28.21-34.06,25.63-14.37-2.01-11.05-9.98-11.12-21.81,7.2-1.87,4.96,6.23,9.36,11.76,7.1,8.93,25.94,7.22,26.23-5.81.38-17.33-37.47-16.53-33.85-40.43,2.13-14.02,17.51-17.35,29.5-16.15,15.04,1.51,10.57,7.76,10.96,20.24Z"/>
  <path class="st6" d="M191.36,274.84c-.53-3.03.8-15.93-.07-16.82-.33-.34-6.66-.69-9.3-1.67-14.38-5.35-15.58-13.14-19.32-27.09,1.12-1.06,16.53,3.78,19.16,5.31,6.67,3.89,7.58,10.49,12.9,14.94,2.39-20.9,13.05-31.2,33.78-33.76.3,10.1-3.86,24.8-13.94,29.11-3.94,1.69-6.44.72-9.69,1.27l5.93-13.47c-4.26,2.22-9.54,10.72-10.99,15.16-2.73,8.36-1.37,18.35-1.69,27.02-1.69-.03-4.86.02-6.75,0Z"/>
  <path class="st3" d="M632.63,233.16l.02,6.77c11.35-10.04,28.49-9.84,30.42,7.56.75,6.78-1.75,25.51.84,29.63.47.74,7.48,3.27,4.18,6.7-.76.79-21.2.79-21.96,0-3.24-3.38,3.67-5.95,4.13-6.75,2.66-4.59,3.4-22.2,2.52-27.75-2.01-12.71-18.28-11.39-20.12-1.76-.72,3.73-.49,27.42.85,29.56.47.74,7.48,3.27,4.18,6.7-.76.79-18.56-.55-21.97,0-1.35-7.66,2.29-3.74,4.63-5.38,2.9-2.03,3.13-31.53,1.32-35.18-.88-1.76-9.6-4.83-5.95-8.39.61-.59,14.07-.62,16.89-1.71Z"/>
  <path class="st3" d="M554.97,274.54c.89,2.63,11.92,2.31,5.04,6.72-1.47.94-14.59,3.08-15.14,2.53l-.04-5.05c-40.97,19.54-25.85-18.85-30.34-37.63-.54-2.24-5.75-1.83-5.12-5.39l15.14-2.47c2.82,10.14-3.94,33.97,3.49,41.25,4.79,4.69,15.54,1.52,16.81-5.07.54-2.79.71-26.46.15-28.47-.34-1.22-10.05-2.66-6.86-6.1.93-1,14.2-2.07,16.88-1.7,2.01,9.88-2.71,33.39,0,41.37Z"/>
  <path class="st5" d="M951.77,256.81c-.44,13.04,5.53,20.67,19.32,18.49,3.34-.53,9.98-6.14,11.07-4.97,3.98,4.26-9.85,12.44-13.04,13.1-41,8.53-35.67-61.5,2.46-48.96,10.96,3.61,15.54,22.33,9.74,22.33h-29.55ZM972.04,251.74c2.6-19.97-21.12-17.24-20.27,0h20.27Z"/>
  <path class="st0" d="M609,256.81h-30.39c-1.33,13.49,5.44,21.13,19.34,18.48,4.31-.82,6.52-5.24,11.04-4.97-4.01,17.98-30.5,18.36-38.61,2.31-18.71-37.02,38.18-59.92,38.62-15.82ZM598.87,251.73c.91-18.57-21.22-18.47-20.27,0h20.27Z"/>
  <path class="st5" d="M749.15,256.81h-30.39c-1.17,13.83,5.2,20.8,19.33,18.47,3.33-.55,9.98-6.1,11.05-4.95,6.01,6.43-24.83,24.55-37.9,4.97-23.12-34.65,36.65-66.03,37.9-18.49ZM739.01,251.73c-1.14-19.59-18.11-18.76-21.97-.86l21.97.86Z"/>
  <path class="st5" d="M1144.26,256.81h-30.39c-.19,7.2.52,13.47,7.25,17.22,11.87,6.61,21.6-5.34,23.13-3.7,3.98,4.26-9.85,12.44-13.04,13.1-25.65,5.33-37.16-23.09-23.16-41.72,13.13-17.48,40.16-7.29,36.2,15.1ZM1134.13,251.73c.91-18.57-21.22-18.47-20.27,0h20.27Z"/>
  <path class="st13" d="M882.54,264.41c-.03,1.52-2.35,3.32-1.42,8.02,1.27,6.39,6.88,4.34,6.47,9.7-6.09-1.2-12.72,1.07-18.2,1.26-11.37.41-.55-4.67.48-6.33,2.15-3.47.73-40.39.77-48.18.03-4.31,3.31-10.25-.33-13.89-1.56-1.55-5.85-1.23-6.35-2.95-1.07-3.66,2.04-2.16,3.95-2.73,2.73-.81,14.64-4.79,14.64-.63,0,18.56.32,37.17,0,55.72Z"/>
  <path class="st0" d="M1022.68,246.68c-6.76,1.87-5.69-6.41-11.33-8.1-7.89-2.37-14.3,2.47-9.8,9.82,2.32,3.79,17.19,6.21,20.94,12.82,4.99,8.8.42,19.97-9.44,22.24-3.27.75-21.02-.04-22.35-1.41-.88-.9.41-12.29-.08-15.12,7.19-1.47,4.17,2.63,6.95,7.39,4.11,7.05,17.3,6.5,17.99-1.74.94-11.16-27.4-10.05-24.66-26.31,2.94-17.44,36-19.8,31.79.42Z"/>
  <path class="st10" d="M144.07,116.12l-17.74,16.86c-11.44,13.77-14.12,27.91-12.65,45.6-2.3,2.34-10.62-5-11.47-7.93-.51-1.76-2.07-17.37-2.08-19.99-.06-10.05,4.74-20.48,8.52-29.47,8.71-.3,1.05,12.01,4.19,16.87,7.38-10.54,17.66-20.97,31.24-21.93Z"/>
  <path class="st5" d="M939.95,238.21c-.29.38-5.14.22-6.88,2.86-5.69,8.61-8.86,28.66-14.72,38.88-.97,1.69-1.99,4.49-4.55,3.87-3.66-.88-14.16-35.08-17.96-41.16-2.64-4.22-7.18-3-6.54-7.8h21.93c.21,3.93-3.53,4.58-3.36,9.07.23,6.36,7.51,16.13,8.46,22.99l10.11-24.61c.38-2.83-8.58-5.53-5.07-9.14.87-.89,23.17-.91,18.58,5.04Z"/>
  <path class="st0" d="M1046.32,221.36c.42,2.27-.56,11.29,0,11.82.49.47,12.1-.27,13.51,1.7,4.5,6.3-12.93,4.47-13.51,5.04-1.2,1.18-.17,31.68.85,33.77,3.32,6.84,13.17.43,14.35,1.7,5.5,5.94-19.59,14.31-24.44,3.33-2.8-6.36.54-37.47-.87-38.81-.61-.57-6.18.6-6.78,0-4.17-4.12,4.11-5.27,5-5.91,3-2.13,3.02-13.81,11.89-12.65Z"/>
  <path class="st0" d="M1063.21,283.82c-1.01-4.54,4.52-4.48,5.9-6.76,1.26-2.08,1.56-27.59.87-31.25-.95-5.02-6.42-3.81-6.76-8.4.68-3.11,13.46-3.23,16.87-4.26l.84,6.76c3.82-9.16,23.91-8.45,18.66,1.69-4.73,9.13-13.24-6.36-18.21,5.52-1.74,4.17-2.26,22.84-.96,27.09,1.9,6.23,10.36,1.77,8.12,9.62h-25.33Z"/>
  <path class="st3" d="M690.05,274.54c1.67,5.48,12.47-.26,13.5.85,5.14,5.56-15.57,12.31-21.54,6.35-4.86-4.85-.42-40.26-2.07-41.82-.88-.83-9.6,2.37-6.8-4.21.7-1.64,4.39-.35,5.95-2.48,2.47-3.39,1.34-13.26,10.96-11.86.46,2.48-.61,12.9,0,13.51.89.89,11.45-1.36,11.84.84,1.33,7.57-7.22,3.19-11.83,4.21,1.68,8.84-2.28,27.16,0,34.61Z"/>
  <path class="st10" d="M155.9,170.13c1.53,1.18,11.32-2.88,13.6-4.12,5.37-2.92,7.71-8.22,13.41-9.37.3,2.34-.77,4.5-2.24,6.21-15.89,18.5-23.69,13.11-44.04,15.88-7.57,1.03-14.34,9.34-19.47.5,5.02-12.7,20.46-6.52,29.24-11,6.06-3.09,9.3-11.88,13.73-16.66,2.58,6.19-1.61,13.08-4.23,18.55Z"/>
  <path class="st6" d="M194.74,224.18c-.16,2.99,1.6,6.65-3.38,4.23-12.36-6-17.76-24.61-13.53-37.18,1.52-4.53,4.18-3.07,7.72-.91,10.93,6.71,19.27,22.83,14.26,35.53-2.84.86-2.91-1.45-3.37-1.68-.19-4.74-2.39-11.09-6.74-13.51.18,4.01,2.31,10.73,5.05,13.51ZM188.83,207.29v1.69c1.1-.56,1.1-1.13,0-1.69Z"/>
  <path class="st3" d="M853.83,233.17v43.06c0,2.61,9.74.9,6.75,7.6h-23.64c-2.18-7.66,5.03-3.54,6.55-7.8.74-2.09.88-32.71-.03-34.17s-8.31-.76-6.5-4.44c1.69-3.45,13.08-3.07,16.87-4.25Z"/>
  <path class="st10" d="M350.09,303.53c1.51-12.31-1.5-43.72,8.31-51.61,4.52-3.63,9.74-4.45,9.55,2.63-.23,8.31-2.24,21.18-4.81,29.12-.73,2.26-9.89,23.47-13.04,19.87Z"/>
  <path class="st10" d="M350.08,261.32c1,.97-1.19,23.97-1.69,27.88-.25,1.96.73,3.4-2.46,2.47-1.19-.35-8.04-4.2-8.52-4.99-3.9-6.39,1.01-28.89,12.67-25.36Z"/>
  <path class="st0" d="M853.4,222.61c-5.62,5.74-16.76-3.6-9-9.86,6.84-5.52,14.92,3.81,9,9.86Z"/>
  <path class="st14" d="M196.43,224.18c-.48-.24-1.42.27-1.69,0-2.74-2.77-4.87-9.5-5.05-13.51,4.34,2.42,6.55,8.76,6.74,13.51Z"/>
  <path class="st14" d="M199.81,247.82c1.45-4.45,6.73-12.94,10.99-15.16l-5.93,13.47c-.82.14-2.99,2.52-5.07,1.69Z"/>
  <rect class="st2" x="610.7" y="136.93" width="5.05" height="3.36"/>
  <path class="st12" d="M130.57,359.27c-.09,14.75-14.99,26.31-28.68,28.69.16-16.5,12.46-28.07,28.68-28.69Z"/>
  <path class="st8" d="M140.7,342.38c3.1,2.75-12.61,12.04-15.13,12.71-6.1,1.62-26.61,2.19-17.51-5.69,10.05-8.71,20.15-7.26,32.65-7.02Z"/>
  <path class="st8" d="M189.67,310.3c-.04,10.1-13.28,14.6-21.93,13.49,2.75-9.31,12.68-14.55,21.93-13.49Z"/>
  <path class="st12" d="M158.44,124.56c1.1.56,1.1,1.13,0,1.69v-1.69Z"/>
  <path class="st8" d="M468.85,218.82c1.89-6.05,28.19-3.46,22.8,19.48-2.57,10.97-13.44,10.71-22.8,10.07,1.45-7.58-1.98-23.21,0-29.55Z"/>
  <path class="st8" d="M598.87,251.73h-20.27c-.95-18.47,21.18-18.57,20.27,0Z"/>
  <path class="st8" d="M739.01,251.73l-21.97-.86c3.86-17.9,20.83-18.73,21.97.86Z"/>
  <path class="st14" d="M188.83,207.29c1.1.56,1.1,1.13,0,1.69v-1.69Z"/>
</svg>